<svg width="165" height="35" viewBox="0 0 165 35" fill="none" xmlns="http://www.w3.org/2000/svg">
<path d="M41.0549 13.0686C41.0549 11.2926 41.5109 9.94857 42.4229 9.03657C43.3349 8.12457 44.6789 7.66857 46.4549 7.66857C48.2309 7.66857 49.5749 8.12457 50.4869 9.03657C51.3989 9.94857 51.8549 11.2926 51.8549 13.0686V20.2686C51.8549 22.0446 51.3989 23.3886 50.4869 24.3006C49.5749 25.2126 48.2309 25.6686 46.4549 25.6686C44.6789 25.6686 43.3349 25.2126 42.4229 24.3006C41.5109 23.3886 41.0549 22.0446 41.0549 20.2686V13.0686ZM57.8549 7.66857H53.3429V25.9086H57.8549V18.2046H59.6549V14.6046H57.8549V7.66857ZM45.6149 21.2286C45.6149 21.7886 45.8949 22.0686 46.4549 22.0686C47.0149 22.0686 47.2949 21.7886 47.2949 21.2286V12.1086C47.2949 11.5486 47.0149 11.2686 46.4549 11.2686C45.8949 11.2686 45.6149 11.5486 45.6149 12.1086V21.2286ZM74.63 7.66857V25.9086H79.142V7.66857H74.63ZM67.67 7.86057C65.91 7.86057 64.574 8.32457 63.662 9.25257C62.75 10.1806 62.294 11.5406 62.294 13.3326V19.7166C62.294 21.5086 62.75 22.8686 63.662 23.7966C64.574 24.7246 65.91 25.1886 67.67 25.1886C69.43 25.1886 70.766 24.7246 71.678 23.7966C72.59 22.8686 73.046 21.5086 73.046 19.7166V13.3326C73.046 11.5406 72.59 10.1806 71.678 9.25257C70.766 8.32457 69.43 7.86057 67.67 7.86057ZM67.67 11.4606C68.262 11.4606 68.558 11.7646 68.558 12.3726V20.6766C68.558 21.2846 68.262 21.5886 67.67 21.5886C67.078 21.5886 66.782 21.2846 66.782 20.6766V12.3726C66.782 11.7646 67.078 11.4606 67.67 11.4606ZM88.0764 16.8846C86.7004 16.8846 85.5884 16.4766 84.7404 15.6606C83.8924 14.8286 83.4684 13.7326 83.4684 12.3726C83.4684 11.0126 83.8924 9.92457 84.7404 9.10857C85.5884 8.27657 86.7004 7.86057 88.0764 7.86057H95.6604C97.0364 7.86057 98.1484 8.27657 98.9964 9.10857C99.8444 9.92457 100.268 11.0126 100.268 12.3726C100.268 13.7326 99.8444 14.8286 98.9964 15.6606C98.1484 16.4766 97.0364 16.8846 95.6604 16.8846H88.0764ZM88.9164 11.4606C88.6444 11.4606 88.4204 11.5486 88.2444 11.7246C88.0684 11.8846 87.9804 12.0926 87.9804 12.3486C87.9804 12.6206 88.0684 12.8446 88.2444 13.0206C88.4204 13.1806 88.6444 13.2606 88.9164 13.2606H94.8204C95.0924 13.2606 95.3164 13.1806 95.4924 13.0206C95.6684 12.8446 95.7564 12.6206 95.7564 12.3486C95.7564 12.0926 95.6684 11.8846 95.4924 11.7246C95.3164 11.5486 95.0924 11.4606 94.8204 11.4606H88.9164ZM100.508 18.6846V22.3086H97.7484V25.9086H93.1884V22.3086H90.5004L90.3084 25.9086H85.9884V22.3086H83.2284V18.6846H100.508ZM118.452 20.4846C118.452 21.7006 119.052 22.3086 120.252 22.3086V25.9086C119.132 25.9086 118.172 25.8126 117.372 25.6206C116.572 25.4126 115.916 25.0686 115.404 24.5886C114.908 24.1086 114.54 23.4686 114.3 22.6686C114.06 21.8686 113.94 20.8606 113.94 19.6446V14.1726C113.94 13.0366 114.044 12.0766 114.252 11.2926C114.46 10.4926 114.804 9.84457 115.284 9.34857C115.78 8.85257 116.428 8.49257 117.228 8.26857C118.044 8.02857 119.052 7.90857 120.252 7.90857V11.5086C119.052 11.5086 118.452 12.1246 118.452 13.3566V20.4846ZM130.088 25.9086V7.90857H124.328V25.9086H130.088ZM133.745 7.90857H139.505V21.4206H141.545C142.281 21.4206 142.777 21.3246 143.033 21.1326C143.305 20.9406 143.441 20.5246 143.441 19.8846V7.90857H149.201V18.0126C149.201 19.5486 149.097 20.8446 148.889 21.9006C148.697 22.9566 148.313 23.8206 147.737 24.4926C147.177 25.1486 146.393 25.6206 145.385 25.9086C144.377 26.1966 143.073 26.3406 141.473 26.3406C139.873 26.3406 138.569 26.1966 137.561 25.9086C136.553 25.6206 135.761 25.1486 135.185 24.4926C134.625 23.8366 134.241 22.9806 134.033 21.9246C133.841 20.8526 133.745 19.5486 133.745 18.0126V7.90857ZM152.838 22.3086C154.038 22.3086 154.638 21.7006 154.638 20.4846V13.3566C154.638 12.1246 154.038 11.5086 152.838 11.5086V7.90857C153.958 7.90857 154.918 8.01257 155.718 8.22057C156.518 8.41257 157.166 8.74857 157.662 9.22857C158.174 9.70857 158.55 10.3486 158.79 11.1486C159.03 11.9486 159.15 12.9566 159.15 14.1726V19.6446C159.15 20.7646 159.046 21.7246 158.838 22.5246C158.63 23.3246 158.278 23.9726 157.782 24.4686C157.302 24.9646 156.654 25.3326 155.838 25.5726C155.038 25.7966 154.038 25.9086 152.838 25.9086V22.3086Z" fill="#CAB3DF"/>
<path d="M10.107 18.6931C10.2055 18.6932 10.3029 18.6737 10.3939 18.6358C10.4848 18.5978 10.5674 18.542 10.6369 18.4718L12.3728 16.7213C12.5119 16.5793 12.5896 16.3875 12.589 16.1879C12.5884 15.9883 12.5095 15.797 12.3696 15.6559C12.2296 15.5147 12.0399 15.4352 11.842 15.4346C11.644 15.434 11.4539 15.5124 11.313 15.6527L9.57719 17.4031C9.47239 17.5088 9.40102 17.6435 9.37211 17.79C9.3432 17.9366 9.35804 18.0886 9.41475 18.2266C9.47147 18.3647 9.56751 18.4827 9.69074 18.5657C9.81396 18.6488 9.95884 18.6931 10.107 18.6931Z" fill="#CAB3DF"/>
<path d="M4.90564 24.2512L6.0054 25.3602C6.13687 25.4928 6.31251 25.5713 6.4982 25.5806C6.68389 25.5899 6.86638 25.5292 7.0102 25.4104L21.5563 13.3925C22.843 13.3328 24.0848 12.8973 25.1305 12.1389C26.1762 11.3804 26.9807 10.3319 27.4461 9.12078C27.9116 7.90967 28.0179 6.58824 27.7521 5.31732C27.4863 4.04639 26.8599 2.88078 25.9491 1.96233C25.0383 1.04388 23.8824 0.412212 22.6221 0.144191C21.3617 -0.12383 20.0513 -0.016643 18.8503 0.452708C17.6493 0.922059 16.6094 1.73333 15.8574 2.7878C15.1053 3.84226 14.6733 5.09444 14.6142 6.39195L2.69634 21.0603C2.57851 21.2053 2.51836 21.3894 2.52756 21.5766C2.53676 21.7639 2.61467 21.941 2.74614 22.0735L3.84591 23.1826L1.33347 25.7161C0.911091 26.141 0.575915 26.6457 0.347109 27.2014C0.118302 27.757 0.000351269 28.3527 7.83394e-07 28.9543C-0.000349702 29.556 0.116907 30.1518 0.345066 30.7077C0.573225 31.2636 0.907812 31.7687 1.32969 32.1942C1.75158 32.6196 2.25248 32.957 2.80376 33.1871C3.35505 33.4171 3.9459 33.5354 4.54253 33.535C5.13916 33.5347 5.72987 33.4157 6.28089 33.185C6.8319 32.9543 7.33241 32.6163 7.7538 32.1904L12.6624 27.2405C12.8401 27.0605 13.0513 26.9177 13.2839 26.8201C13.5165 26.7226 13.7658 26.6722 14.0177 26.672C14.2696 26.6717 14.519 26.7216 14.7518 26.8187C14.9845 26.9157 15.196 27.0582 15.3741 27.2378C15.5522 27.4174 15.6935 27.6306 15.7898 27.8653C15.886 28.1 15.9355 28.3516 15.9352 28.6056C15.935 28.8596 15.885 29.111 15.7883 29.3456C15.6916 29.5801 15.5499 29.7931 15.3715 29.9723L12.4583 32.9099C12.3886 32.98 12.3333 33.0633 12.2955 33.155C12.2578 33.2468 12.2383 33.3451 12.2382 33.4444C12.2382 33.5437 12.2575 33.6421 12.2952 33.7338C12.3328 33.8256 12.3881 33.909 12.4577 33.9792C12.5273 34.0494 12.61 34.1051 12.701 34.1431C12.792 34.1811 12.8896 34.2006 12.988 34.2005C13.0865 34.2004 13.184 34.1808 13.275 34.1427C13.3659 34.1046 13.4485 34.0488 13.5181 33.9785L16.4312 31.0409C17.0715 30.3953 17.4312 29.5195 17.4312 28.6064C17.4312 27.6933 17.0715 26.8175 16.4312 26.1719C15.7909 25.5262 14.9224 25.1635 14.0169 25.1635C13.1114 25.1635 12.2429 25.5262 11.6026 26.1719L6.69407 31.1218C6.12365 31.6965 5.35025 32.0192 4.54391 32.019C3.73758 32.0189 2.96432 31.6958 2.39415 31.1208C1.82398 30.5459 1.50359 29.7661 1.50341 28.953C1.50323 28.1399 1.82328 27.36 2.39319 26.7848L4.90564 24.2512ZM17.6094 3.03438C18.329 2.30875 19.2458 1.81459 20.2439 1.61439C21.242 1.41419 22.2765 1.51694 23.2167 1.90964C24.1569 2.30235 24.9605 2.96738 25.5259 3.82063C26.0912 4.67388 26.393 5.67702 26.393 6.70322C26.393 7.72941 26.0912 8.73256 25.5259 9.58581C24.9605 10.4391 24.1569 11.1041 23.2167 11.4968C22.2765 11.8895 21.242 11.9923 20.2439 11.7921C19.2458 11.5919 18.329 11.0977 17.6094 10.3721C17.1297 9.89138 16.7489 9.31977 16.4891 8.69011C16.2293 8.06046 16.0955 7.38521 16.0955 6.70322C16.0955 6.02123 16.2293 5.34598 16.4891 4.71632C16.7489 4.08667 17.1297 3.51505 17.6094 3.03438ZM11.6969 12.3672L15.6309 16.3342L6.58527 23.8076L4.28569 21.4887L11.6969 12.3672Z" fill="#CAB3DF"/>
</svg>
